<?xml version="1.0" standalone="no"?><?xml-stylesheet type="text/css" href="https://www.processon.com/themes/default/mind/icons/icons.css" ?><!DOCTYPE svg PUBLIC "-//W3C//DTD SVG 1.1//EN" "http://www.w3.org/Graphics/SVG/1.1/DTD/svg11.dtd">
<svg xmlns="http://www.w3.org/2000/svg" version="1.1" xlink="http://www.w3.org/1999/xlink" id="mind-svg-con" width="668px" height="588px" style="position: absolute; left: 0px; top: 0px; width: 668px; height: 588px; background: rgb(255, 255, 255); z-index: 999;"><defs></defs><g id="svgbackgroundid"><defs></defs><rect x="0" y="0" width="668" height="588" fill="#ffffff"></rect></g><g transform="translate(-9902, -9648)" id="sdjakdjak9"><defs></defs><g class="svg-topic-con" transform="translate(0.5,0.5)"><path part="right" sub="true" id="line_8fbd8cf49d39" d="M 10000 9941.5 L 10056 9941.5 C 10096 9941.5 10096 9701 10163 9701" stroke="#0D0B22" fill="none" stroke-width="2"></path><path part="right" sub="true" id="line_3c8aae493df0" d="M 10000 9941.5 L 10056 9941.5 C 10096 9941.5 10096 9770 10163 9770" stroke="#0D0B22" fill="none" stroke-width="2"></path><path part="right" sub="true" id="line_04dfae15bf5f" d="M 10000 9941.5 L 10056 9941.5 C 10096 9941.5 10096 9839 10163 9839" stroke="#0D0B22" fill="none" stroke-width="2"></path><path part="right" sub="true" id="line_71b5a9619d0c" d="M 10000 9941.5 L 10056 9941.5 C 10096 9941.5 10096 9908 10163 9908" stroke="#0D0B22" fill="none" stroke-width="2"></path><path part="right" sub="true" id="line_e7aa9e811998" d="M 10000 9941.5 L 10056 9941.5 C 10096 9941.5 10096 9977 10163 9977" stroke="#0D0B22" fill="none" stroke-width="2"></path><path part="right" sub="true" id="line_74e132a2d5f5" d="M 10000 9941.5 L 10056 9941.5 C 10096 9941.5 10096 10046 10163 10046" stroke="#0D0B22" fill="none" stroke-width="2"></path><path part="right" sub="true" id="line_9864bc009c9d" d="M 10000 9941.5 L 10056 9941.5 C 10096 9941.5 10096 10115 10163 10115" stroke="#0D0B22" fill="none" stroke-width="2"></path><path part="right" sub="true" id="line_af6658e531c0" d="M 10000 9941.5 L 10056 9941.5 C 10096 9941.5 10096 10184 10163 10184" stroke="#0D0B22" fill="none" stroke-width="2"></path></g><g class="svg-connection-con" transform="translate(0.5,0.5)"></g><g class="svg-freesums-con" transform="translate(0.5,0.5)"></g><g class="svg-freebos-con" transform="translate(0.5,0.5)"></g></g><g id="af6658e531c0"><rect x="261" y="513" rx="7px" ry="7px" width="237" height="45" style="fill: #F3F3F4; stroke:none;"></rect><g><text text-anchor="start" align="top" anchor="start" font-size="16px" font-weight="normal" fill="rgb(13, 11, 34)" style="font-size:16px;font-family:微软雅黑;color:#0D0B22;font-style:normal;text-align:left;font-weight:normal;font-style: normal;"><tspan x="308" y="540.65625"><tspan>ApplicationContext</tspan></tspan></text></g><g><g transform="translate(283, 528.859375) scale(0.01953125)" fill="rgb(68, 68, 68)"><path d="M512.054189 4.262904c-280.430411 0-507.773223 227.306685-507.773223 507.773223 0 280.394285 227.342812 507.75516 507.773223 507.75516 280.412348 0 507.719033-227.360875 507.719033-507.75516C1019.773223 231.587652 792.466537 4.262904 512.054189 4.262904zM647.383313 683.744435c-8.724502 17.467067-18.46054 32.025966-29.099735 43.676698-10.693385 11.650732-25.234221 20.862939-43.658635 27.63662-18.46054 6.827871-41.762004 10.169554-69.868266 10.169554-28.160452 0-52.383136-3.359746-72.75837-10.169554-20.375234-6.773681-37.372658-16.961298-50.938084-30.562851-13.601552-13.547363-22.831822-29.569377-27.63662-48.011854-4.877051-18.424413-7.27945-39.305415-7.27945-62.588816s5.816334-46.079097 17.467067-68.405151c11.650732-22.289928 31.032493-40.262762 58.217534-53.846252-23.283401-13.547363-38.81771-28.61203-46.566802-45.12175-7.785218-16.45553-12.138437-35.385712-13.095784-56.754419-1.011536-21.332581 1.896631-39.756994 8.724502-55.309367 6.773681-15.498183 16.943235-30.057082 30.544787-43.658635 13.565426-13.547363 28.61203-22.777633 45.12175-27.654683 16.45553-4.822861 34.428365-7.27945 53.846252-7.27945 19.363697 0 36.830764 1.95082 52.383136 5.816334 15.498183 3.901641 32.007903 12.138437 49.474969 24.746516 17.467067 12.644205 30.057082 30.562851 37.8423 53.846252 7.749092 23.301464 7.27945 50.486506-1.445052 81.500935-8.724502 31.068619-31.574387 55.309367-68.405151 72.776433 32.96525 9.736038 56.248651 24.746516 69.850203 45.12175 13.565426 20.375234 20.375234 45.12175 20.375234 74.221485S656.107814 666.277368 647.383313 683.744435z"></path><path d="M500.403457 465.433198c29.099735 0 50.920021-8.724502 65.47892-26.191568 14.576962-17.467067 21.350644-38.293879 20.393297-62.570753-1.011536-24.240748-9.736038-42.213583-26.209631-53.846252-16.491656-11.650732-38.81771-16.45553-66.942036-14.558899-28.160452 1.95082-48.029917 10.187617-59.680649 24.746516s-17.467067 31.574387-17.467067 50.938084c0 19.417887 6.791745 37.8423 20.375234 55.309367C449.916952 456.690633 471.285659 465.433198 500.403457 465.433198z"></path><path d="M564.419263 545.471018c-21.38677-14.558899-44.652108-20.826812-69.850203-18.930182-25.234221 1.95082-46.133286 10.693385-62.588816 26.191568-16.50972 15.552373-25.234221 34.934133-26.191568 58.235597-1.011536 23.283401 2.908167 43.658635 11.650732 61.125701s24.728453 28.648157 48.029917 33.489081c23.283401 4.877051 47.524149 4.353219 72.75837-1.463115 25.198095-5.816334 42.647098-19.363697 52.383136-40.750467 9.681849-21.332581 13.113847-42.665161 10.187617-64.033868C597.908344 578.002752 585.751843 560.029917 564.419263 545.471018z"></path></g></g><path d="M906.372741 0.018963C960.777481 0.075852 1005.131852 44.126815 1005.131852 98.49363L1005.131852 98.49363 1005.131852 98.49363 1005.131852 925.525333C1005.131852 979.892148 960.777481 1024 906.221037 1024L117.835852 1024C63.16563 1024 18.868148 979.892148 18.868148 925.525333L18.868148 98.49363C18.868148 44.126815 63.222519 0.018963 117.835852 0.018963M925.980444 74.088296 93.790815 74.088296 93.790815 945.170963 925.866667 945.170963 925.904593 945.170963 925.904593 74.088296 925.980444 74.088296 925.980444 74.088296ZM217.353481 338.640593 449.744593 338.640593C454.428444 338.640593 458.258963 334.829037 458.258963 330.145185L458.258963 264.438519 458.258963 263.338667C458.258963 258.673778 454.428444 254.748444 449.85837 254.748444L217.353481 254.748444C212.612741 254.748444 208.839111 258.673778 208.839111 263.338667L208.839111 330.145185C208.839111 334.829037 212.612741 338.640593 217.353481 338.640593L217.353481 338.640593 217.353481 338.640593ZM217.353481 554.799407 673.526519 554.799407C678.229333 554.799407 682.040889 550.987852 682.040889 546.304L682.040889 480.57837C682.154667 480.161185 682.154667 479.819852 682.154667 479.440593 682.154667 474.775704 678.381037 470.964148 673.754074 470.964148L217.353481 470.964148C212.612741 470.964148 208.839111 474.775704 208.839111 479.440593L208.839111 546.360889C208.839111 550.930963 212.612741 554.799407 217.353481 554.799407L217.353481 554.799407 217.353481 554.799407ZM217.353481 770.901333 806.532741 770.901333C811.178667 770.901333 815.047111 767.089778 815.047111 762.405926L815.047111 696.699259C815.104 696.263111 815.104 695.940741 815.104 695.542519 815.104 690.87763 811.33037 687.066074 806.760296 687.066074L217.353481 687.066074C212.612741 687.066074 208.839111 690.87763 208.839111 695.542519L208.839111 762.462815C208.839111 767.089778 212.612741 770.901333 217.353481 770.901333L217.353481 770.901333 217.353481 770.901333Z" fill="#0D0B22" transform="translate(459.671875, 527.859375) scale(0.013671875)"></path></g><g id="9864bc009c9d"><rect x="261" y="444" rx="7px" ry="7px" width="240" height="45" style="fill: #F3F3F4; stroke:none;"></rect><g><text text-anchor="start" align="top" anchor="start" font-size="16px" font-weight="normal" fill="rgb(13, 11, 34)" style="font-size:16px;font-family:微软雅黑;color:#0D0B22;font-style:normal;text-align:left;font-weight:normal;font-style: normal;"><tspan x="308" y="471.65625"><tspan>BeanPostProcessor</tspan></tspan></text></g><g><path d="M512.054189 4.262904c-280.430411 0-507.773223 227.342812-507.773223 507.75516 0 280.448474 227.342812 507.773223 507.773223 507.773223 280.412348 0 507.719033-227.324749 507.719033-507.773223C1019.773223 231.605715 792.466537 4.262904 512.054189 4.262904zM669.203599 314.08206c-91.236973 147.503687-151.333075 295.007373-180.450873 442.456871l-64.051932 0c34.952196-147.449497 96.059834-293.995837 183.377104-439.53064L357.758758 317.008291l0-52.383136 311.44484 0L669.203599 314.08206z" fill="rgb(68, 68, 68)" transform="translate(283, 456.859375) scale(0.01953125)"></path></g><path d="M906.372741 0.018963C960.777481 0.075852 1005.131852 44.126815 1005.131852 98.49363L1005.131852 98.49363 1005.131852 98.49363 1005.131852 925.525333C1005.131852 979.892148 960.777481 1024 906.221037 1024L117.835852 1024C63.16563 1024 18.868148 979.892148 18.868148 925.525333L18.868148 98.49363C18.868148 44.126815 63.222519 0.018963 117.835852 0.018963M925.980444 74.088296 93.790815 74.088296 93.790815 945.170963 925.866667 945.170963 925.904593 945.170963 925.904593 74.088296 925.980444 74.088296 925.980444 74.088296ZM217.353481 338.640593 449.744593 338.640593C454.428444 338.640593 458.258963 334.829037 458.258963 330.145185L458.258963 264.438519 458.258963 263.338667C458.258963 258.673778 454.428444 254.748444 449.85837 254.748444L217.353481 254.748444C212.612741 254.748444 208.839111 258.673778 208.839111 263.338667L208.839111 330.145185C208.839111 334.829037 212.612741 338.640593 217.353481 338.640593L217.353481 338.640593 217.353481 338.640593ZM217.353481 554.799407 673.526519 554.799407C678.229333 554.799407 682.040889 550.987852 682.040889 546.304L682.040889 480.57837C682.154667 480.161185 682.154667 479.819852 682.154667 479.440593 682.154667 474.775704 678.381037 470.964148 673.754074 470.964148L217.353481 470.964148C212.612741 470.964148 208.839111 474.775704 208.839111 479.440593L208.839111 546.360889C208.839111 550.930963 212.612741 554.799407 217.353481 554.799407L217.353481 554.799407 217.353481 554.799407ZM217.353481 770.901333 806.532741 770.901333C811.178667 770.901333 815.047111 767.089778 815.047111 762.405926L815.047111 696.699259C815.104 696.263111 815.104 695.940741 815.104 695.542519 815.104 690.87763 811.33037 687.066074 806.760296 687.066074L217.353481 687.066074C212.612741 687.066074 208.839111 690.87763 208.839111 695.542519L208.839111 762.462815C208.839111 767.089778 212.612741 770.901333 217.353481 770.901333L217.353481 770.901333 217.353481 770.901333Z" fill="#0D0B22" transform="translate(463.328125, 458.859375) scale(0.013671875)"></path></g><g id="74e132a2d5f5"><rect x="261" y="375" rx="7px" ry="7px" width="298" height="45" style="fill: #F3F3F4; stroke:none;"></rect><g><text text-anchor="start" align="top" anchor="start" font-size="16px" font-weight="normal" fill="rgb(13, 11, 34)" style="font-size:16px;font-family:微软雅黑;color:#0D0B22;font-style:normal;text-align:left;font-weight:normal;font-style: normal;"><tspan x="308" y="402.65625"><tspan>BeanFactoryPostProcessor</tspan></tspan></text></g><g><g transform="translate(283, 390.859375) scale(0.01953125)" fill="rgb(68, 68, 68)"><path d="M580.441277 506.201729c-24.294937-15.516246-51.461916-21.332581-81.500935-17.467067-30.111272 3.901641-51.931558 18.46054-65.496984 43.658635-13.583489 25.234221-19.399824 51.931558-17.467067 80.055883 1.914694 28.160452 11.650732 51.443853 29.099735 69.850203 17.48513 18.46054 40.768531 28.648157 69.868266 30.544787 29.099735 1.968883 53.340483-7.731028 72.75837-29.099735 19.363697-21.314518 29.099735-52.383136 29.099735-93.133604S604.682025 521.754101 580.441277 506.201729z"></path><path d="M512.054189 4.262904c-280.430411 0-507.773223 227.342812-507.773223 507.773223 0 280.430411 227.342812 507.75516 507.773223 507.75516 280.412348 0 507.719033-227.324749 507.719033-507.75516C1019.773223 231.605715 792.466537 4.262904 512.054189 4.262904zM667.758546 663.405327c-8.724502 25.216158-24.294937 48.011854-46.566802 68.405151-22.326054 20.357171-53.394673 31.538261-93.151667 33.471018-39.79312 1.95082-73.751843-5.310566-101.858105-21.820286-28.160452-16.473593-47.578338-39.756994-58.217534-69.868266-10.693385-30.057082-15.064667-59.174881-13.113847-87.335333 1.896631-28.088199 7.27945-51.877368 16.022014-71.295255 8.724502-19.38176 21.820286-43.658635 39.287352-72.776433l119.343235-186.285271 66.942036 0-122.233339 192.101605c52.383136-13.547363 94.072888-11.650732 125.141506 5.816334 31.032493 17.467067 51.895431 37.390721 62.588816 59.680649 10.639196 22.344117 16.45553 46.584865 17.467067 72.75837C680.348562 612.44918 676.483048 638.189169 667.758546 663.405327z"></path></g></g><path d="M906.372741 0.018963C960.777481 0.075852 1005.131852 44.126815 1005.131852 98.49363L1005.131852 98.49363 1005.131852 98.49363 1005.131852 925.525333C1005.131852 979.892148 960.777481 1024 906.221037 1024L117.835852 1024C63.16563 1024 18.868148 979.892148 18.868148 925.525333L18.868148 98.49363C18.868148 44.126815 63.222519 0.018963 117.835852 0.018963M925.980444 74.088296 93.790815 74.088296 93.790815 945.170963 925.866667 945.170963 925.904593 945.170963 925.904593 74.088296 925.980444 74.088296 925.980444 74.088296ZM217.353481 338.640593 449.744593 338.640593C454.428444 338.640593 458.258963 334.829037 458.258963 330.145185L458.258963 264.438519 458.258963 263.338667C458.258963 258.673778 454.428444 254.748444 449.85837 254.748444L217.353481 254.748444C212.612741 254.748444 208.839111 258.673778 208.839111 263.338667L208.839111 330.145185C208.839111 334.829037 212.612741 338.640593 217.353481 338.640593L217.353481 338.640593 217.353481 338.640593ZM217.353481 554.799407 673.526519 554.799407C678.229333 554.799407 682.040889 550.987852 682.040889 546.304L682.040889 480.57837C682.154667 480.161185 682.154667 479.819852 682.154667 479.440593 682.154667 474.775704 678.381037 470.964148 673.754074 470.964148L217.353481 470.964148C212.612741 470.964148 208.839111 474.775704 208.839111 479.440593L208.839111 546.360889C208.839111 550.930963 212.612741 554.799407 217.353481 554.799407L217.353481 554.799407 217.353481 554.799407ZM217.353481 770.901333 806.532741 770.901333C811.178667 770.901333 815.047111 767.089778 815.047111 762.405926L815.047111 696.699259C815.104 696.263111 815.104 695.940741 815.104 695.542519 815.104 690.87763 811.33037 687.066074 806.760296 687.066074L217.353481 687.066074C212.612741 687.066074 208.839111 690.87763 208.839111 695.542519L208.839111 762.462815C208.839111 767.089778 212.612741 770.901333 217.353481 770.901333L217.353481 770.901333 217.353481 770.901333Z" fill="#0D0B22" transform="translate(520.5625, 389.859375) scale(0.013671875)"></path></g><g id="e7aa9e811998"><rect x="261" y="306" rx="7px" ry="7px" width="377" height="45" style="fill: #F3F3F4; stroke:none;"></rect><g><text text-anchor="start" align="top" anchor="start" font-size="16px" font-weight="normal" fill="rgb(13, 11, 34)" style="font-size:16px;font-family:微软雅黑;color:#0D0B22;font-style:normal;text-align:left;font-weight:normal;font-style: normal;"><tspan x="308" y="333.65625"><tspan>BeanDefinitionRegistryPostProcessor</tspan></tspan></text></g><g><path d="M512.036126 4.262904c-280.448474 0-507.75516 227.360875-507.75516 507.773223 0 280.448474 227.306685 507.75516 507.75516 507.75516 280.430411 0 507.737096-227.306685 507.737096-507.75516C1019.773223 231.623778 792.466537 4.262904 512.036126 4.262904zM656.071688 599.371459c-1.011536 21.38677-5.364756 43.225119-13.113847 65.47892-7.785218 22.326054-19.417887 40.750467-34.934133 55.32743-15.552373 14.540836-34.464491 26.173505-56.772482 34.934133-22.326054 8.706439-48.011854 12.138437-77.111589 10.187617-29.117799-1.896631-56.772482-12.590016-82.96405-32.025966-26.191568-19.363697-44.164403-52.383136-53.846252-98.968001l52.383136-14.576962c13.565426 52.419263 36.848827 81.537061 69.868266 87.353396 32.96525 5.816334 59.662586 2.438525 80.019757-10.187617 20.375234-12.590016 34.952196-29.099735 43.676698-49.493032 8.724502-20.357171 12.590016-43.152866 11.650732-68.405151-1.011536-25.198095-7.785218-46.566802-20.375234-64.015805-12.644205-17.467067-28.66622-29.099735-48.029917-34.934133-19.417887-5.816334-41.256236-5.816334-65.47892 0-24.294937 5.816334-44.14634 19.417887-59.680649 40.750467l-49.474969-5.816334c3.865514-11.650732 22.271865-95.066361 55.309367-250.319139l229.943905 0 0 52.383136L450.874299 317.044417c-9.736038 52.383136-19.417887 94.14514-29.117799 125.177633 29.117799-13.565426 56.266714-19.887529 81.518998-18.930182 25.180032 1.011536 49.474969 6.827871 72.75837 17.467067 23.283401 10.693385 40.262762 25.234221 50.938084 43.658635 10.639196 18.46054 18.424413 36.884953 23.283401 55.32743C655.078215 558.151349 657.029035 578.020815 656.071688 599.371459z" fill="rgb(68, 68, 68)" transform="translate(283, 318.859375) scale(0.01953125)"></path></g><path d="M906.372741 0.018963C960.777481 0.075852 1005.131852 44.126815 1005.131852 98.49363L1005.131852 98.49363 1005.131852 98.49363 1005.131852 925.525333C1005.131852 979.892148 960.777481 1024 906.221037 1024L117.835852 1024C63.16563 1024 18.868148 979.892148 18.868148 925.525333L18.868148 98.49363C18.868148 44.126815 63.222519 0.018963 117.835852 0.018963M925.980444 74.088296 93.790815 74.088296 93.790815 945.170963 925.866667 945.170963 925.904593 945.170963 925.904593 74.088296 925.980444 74.088296 925.980444 74.088296ZM217.353481 338.640593 449.744593 338.640593C454.428444 338.640593 458.258963 334.829037 458.258963 330.145185L458.258963 264.438519 458.258963 263.338667C458.258963 258.673778 454.428444 254.748444 449.85837 254.748444L217.353481 254.748444C212.612741 254.748444 208.839111 258.673778 208.839111 263.338667L208.839111 330.145185C208.839111 334.829037 212.612741 338.640593 217.353481 338.640593L217.353481 338.640593 217.353481 338.640593ZM217.353481 554.799407 673.526519 554.799407C678.229333 554.799407 682.040889 550.987852 682.040889 546.304L682.040889 480.57837C682.154667 480.161185 682.154667 479.819852 682.154667 479.440593 682.154667 474.775704 678.381037 470.964148 673.754074 470.964148L217.353481 470.964148C212.612741 470.964148 208.839111 474.775704 208.839111 479.440593L208.839111 546.360889C208.839111 550.930963 212.612741 554.799407 217.353481 554.799407L217.353481 554.799407 217.353481 554.799407ZM217.353481 770.901333 806.532741 770.901333C811.178667 770.901333 815.047111 767.089778 815.047111 762.405926L815.047111 696.699259C815.104 696.263111 815.104 695.940741 815.104 695.542519 815.104 690.87763 811.33037 687.066074 806.760296 687.066074L217.353481 687.066074C212.612741 687.066074 208.839111 690.87763 208.839111 695.542519L208.839111 762.462815C208.839111 767.089778 212.612741 770.901333 217.353481 770.901333L217.353481 770.901333 217.353481 770.901333Z" fill="#0D0B22" transform="translate(599.5, 320.859375) scale(0.013671875)"></path></g><g id="71b5a9619d0c"><rect x="261" y="237" rx="7px" ry="7px" width="266" height="45" style="fill: #F3F3F4; stroke:none;"></rect><g><text text-anchor="start" align="top" anchor="start" font-size="16px" font-weight="normal" fill="rgb(13, 11, 34)" style="font-size:16px;font-family:微软雅黑;color:#0D0B22;font-style:normal;text-align:left;font-weight:normal;font-style: normal;"><tspan x="308" y="264.65625"><tspan>BeanDefinitionRegistry</tspan></tspan></text></g><g><g transform="translate(283, 252.859375) scale(0.01953125)" fill="rgb(68, 68, 68)"><path d="M558.566802 596.409102 558.566802 366.465197 395.564932 596.409102Z"></path><path d="M512.036126 4.262904c-280.448474 0-507.75516 227.324749-507.75516 507.773223 0 280.412348 227.306685 507.75516 507.75516 507.75516 280.430411 0 507.737096-227.342812 507.737096-507.75516C1019.773223 231.587652 792.466537 4.262904 512.036126 4.262904zM683.726371 645.902134l-69.850203 0 0 110.60067-55.309367 0 0-110.60067L334.439231 645.902134l0-49.493032 235.76024-340.544576 43.658635 0 0 340.544576 69.850203 0L683.708308 645.902134z"></path></g></g><path d="M906.372741 0.018963C960.777481 0.075852 1005.131852 44.126815 1005.131852 98.49363L1005.131852 98.49363 1005.131852 98.49363 1005.131852 925.525333C1005.131852 979.892148 960.777481 1024 906.221037 1024L117.835852 1024C63.16563 1024 18.868148 979.892148 18.868148 925.525333L18.868148 98.49363C18.868148 44.126815 63.222519 0.018963 117.835852 0.018963M925.980444 74.088296 93.790815 74.088296 93.790815 945.170963 925.866667 945.170963 925.904593 945.170963 925.904593 74.088296 925.980444 74.088296 925.980444 74.088296ZM217.353481 338.640593 449.744593 338.640593C454.428444 338.640593 458.258963 334.829037 458.258963 330.145185L458.258963 264.438519 458.258963 263.338667C458.258963 258.673778 454.428444 254.748444 449.85837 254.748444L217.353481 254.748444C212.612741 254.748444 208.839111 258.673778 208.839111 263.338667L208.839111 330.145185C208.839111 334.829037 212.612741 338.640593 217.353481 338.640593L217.353481 338.640593 217.353481 338.640593ZM217.353481 554.799407 673.526519 554.799407C678.229333 554.799407 682.040889 550.987852 682.040889 546.304L682.040889 480.57837C682.154667 480.161185 682.154667 479.819852 682.154667 479.440593 682.154667 474.775704 678.381037 470.964148 673.754074 470.964148L217.353481 470.964148C212.612741 470.964148 208.839111 474.775704 208.839111 479.440593L208.839111 546.360889C208.839111 550.930963 212.612741 554.799407 217.353481 554.799407L217.353481 554.799407 217.353481 554.799407ZM217.353481 770.901333 806.532741 770.901333C811.178667 770.901333 815.047111 767.089778 815.047111 762.405926L815.047111 696.699259C815.104 696.263111 815.104 695.940741 815.104 695.542519 815.104 690.87763 811.33037 687.066074 806.760296 687.066074L217.353481 687.066074C212.612741 687.066074 208.839111 690.87763 208.839111 695.542519L208.839111 762.462815C208.839111 767.089778 212.612741 770.901333 217.353481 770.901333L217.353481 770.901333 217.353481 770.901333Z" fill="#0D0B22" transform="translate(488.734375, 251.859375) scale(0.013671875)"></path></g><g id="04dfae15bf5f"><rect x="261" y="168" rx="7px" ry="7px" width="203" height="45" style="fill: #F3F3F4; stroke:none;"></rect><g><text text-anchor="start" align="top" anchor="start" font-size="16px" font-weight="normal" fill="rgb(13, 11, 34)" style="font-size:16px;font-family:微软雅黑;color:#0D0B22;font-style:normal;text-align:left;font-weight:normal;font-style: normal;"><tspan x="308" y="195.65625"><tspan>BeanDefinition</tspan></tspan></text></g><g><path d="M512.036126 4.262904c-280.448474 0-507.75516 227.342812-507.75516 507.75516 0 280.412348 227.306685 507.75516 507.75516 507.75516 280.430411 0 507.737096-227.342812 507.737096-507.75516C1019.773223 231.623778 792.466537 4.262904 512.036126 4.262904zM653.163521 638.604622c-4.877051 37.860363-21.838349 68.405151-50.938084 91.688552s-62.119174 34.464491-98.949938 33.489081c-36.884953-0.957347-68.892856-12.590016-96.059834-34.934133-27.185041-22.289928-44.670171-54.803599-52.383136-97.504886l52.383136-8.724502c7.749092 25.234221 20.375234 46.133286 37.8423 62.570753 17.48513 16.50972 39.305415 24.313001 65.496984 23.283401 26.191568-0.957347 47.018381-11.650732 62.570753-31.989839 15.498183-20.393297 22.271865-43.676698 20.375234-69.850203-1.95082-26.209631-12.138437-46.584865-30.562851-61.143764-18.442477-14.558899-48.011854-24.746516-88.762321-30.562851l0-37.8423c40.750467-3.865514 70.301782-14.558899 88.762321-32.025966 18.442477-17.467067 26.66121-40.244699 24.746516-68.405151-1.95082-28.106262-14.558899-48.481496-37.8423-61.125701-23.283401-12.590016-48.029917-14.053131-74.221485-4.371282-26.191568 9.736038-47.054507 36.884953-62.588816 81.500935l-52.383136-8.724502c11.650732-34.934133 27.654683-64.033868 48.029917-87.317269s48.029917-36.848827 82.96405-40.750467c34.91607-3.865514 65.47892 0.487705 91.688552 13.095784 26.191568 12.644205 44.615982 32.007903 55.309367 58.217534 10.639196 26.209631 12.102311 54.857788 4.353219 85.872217-7.785218 31.068619-30.111272 58.217534-66.942036 81.500935 27.148915 11.650732 48.029917 29.099735 62.588816 52.383136C653.163521 570.199471 657.986382 600.798448 653.163521 638.604622z" fill="rgb(68, 68, 68)" transform="translate(283, 180.859375) scale(0.01953125)"></path></g><path d="M906.372741 0.018963C960.777481 0.075852 1005.131852 44.126815 1005.131852 98.49363L1005.131852 98.49363 1005.131852 98.49363 1005.131852 925.525333C1005.131852 979.892148 960.777481 1024 906.221037 1024L117.835852 1024C63.16563 1024 18.868148 979.892148 18.868148 925.525333L18.868148 98.49363C18.868148 44.126815 63.222519 0.018963 117.835852 0.018963M925.980444 74.088296 93.790815 74.088296 93.790815 945.170963 925.866667 945.170963 925.904593 945.170963 925.904593 74.088296 925.980444 74.088296 925.980444 74.088296ZM217.353481 338.640593 449.744593 338.640593C454.428444 338.640593 458.258963 334.829037 458.258963 330.145185L458.258963 264.438519 458.258963 263.338667C458.258963 258.673778 454.428444 254.748444 449.85837 254.748444L217.353481 254.748444C212.612741 254.748444 208.839111 258.673778 208.839111 263.338667L208.839111 330.145185C208.839111 334.829037 212.612741 338.640593 217.353481 338.640593L217.353481 338.640593 217.353481 338.640593ZM217.353481 554.799407 673.526519 554.799407C678.229333 554.799407 682.040889 550.987852 682.040889 546.304L682.040889 480.57837C682.154667 480.161185 682.154667 479.819852 682.154667 479.440593 682.154667 474.775704 678.381037 470.964148 673.754074 470.964148L217.353481 470.964148C212.612741 470.964148 208.839111 474.775704 208.839111 479.440593L208.839111 546.360889C208.839111 550.930963 212.612741 554.799407 217.353481 554.799407L217.353481 554.799407 217.353481 554.799407ZM217.353481 770.901333 806.532741 770.901333C811.178667 770.901333 815.047111 767.089778 815.047111 762.405926L815.047111 696.699259C815.104 696.263111 815.104 695.940741 815.104 695.542519 815.104 690.87763 811.33037 687.066074 806.760296 687.066074L217.353481 687.066074C212.612741 687.066074 208.839111 690.87763 208.839111 695.542519L208.839111 762.462815C208.839111 767.089778 212.612741 770.901333 217.353481 770.901333L217.353481 770.901333 217.353481 770.901333Z" fill="#0D0B22" transform="translate(425.875, 182.859375) scale(0.013671875)"></path></g><g id="3c8aae493df0"><rect x="261" y="99" rx="7px" ry="7px" width="187" height="45" style="fill: #F3F3F4; stroke:none;"></rect><g><text text-anchor="start" align="top" anchor="start" font-size="16px" font-weight="normal" fill="rgb(13, 11, 34)" style="font-size:16px;font-family:微软雅黑;color:#0D0B22;font-style:normal;text-align:left;font-weight:normal;font-style: normal;"><tspan x="308" y="126.65625"><tspan>BeanFactory</tspan></tspan></text></g><g><path d="M512.036126 4.262904c-280.448474 0-507.75516 227.342812-507.75516 507.773223 0 280.412348 227.306685 507.75516 507.75516 507.75516 280.430411 0 507.737096-227.342812 507.737096-507.75516C1019.773223 231.623778 792.466537 4.262904 512.036126 4.262904zM654.608573 756.520868 360.630799 756.520868l0-11.650732c1.896631-29.099735 15.498183-55.309367 40.750467-78.592768 25.216158-23.283401 57.224061-59.680649 96.059834-109.155618 38.781584-49.493032 64.015805-87.786911 75.666537-114.990016 11.650732-27.148915 16.022014-50.432316 13.113847-69.850203-2.908167-19.38176-12.1565-35.385712-27.654683-48.029917-15.552373-12.590016-33.489081-17.918645-53.846252-16.003951-20.375234 1.95082-39.79312 9.736038-58.217534 23.283401-18.46054 13.601552-32.513671 33.976786-42.213583 61.125701l-55.309367-8.724502c15.498183-44.615982 35.385712-77.147716 59.680649-97.504886 24.240748-20.375234 52.852778-31.520198 85.872217-33.471018 19.363697-1.914694 36.830764-1.463115 52.383136 1.463115 15.498183 2.908167 31.520198 9.736038 48.029917 20.375234 16.45553 10.693385 30.057082 26.697336 40.750467 48.029917 10.639196 21.38677 14.558899 47.07257 11.650732 77.147716-2.908167 30.111272-17.972835 65.984689-45.12175 107.692503-27.203105 41.762004-79.586241 107.240924-157.185535 196.454824L654.608573 704.119668 654.608573 756.520868z" fill="rgb(68, 68, 68)" transform="translate(283, 111.859375) scale(0.01953125)"></path></g><path d="M906.372741 0.018963C960.777481 0.075852 1005.131852 44.126815 1005.131852 98.49363L1005.131852 98.49363 1005.131852 98.49363 1005.131852 925.525333C1005.131852 979.892148 960.777481 1024 906.221037 1024L117.835852 1024C63.16563 1024 18.868148 979.892148 18.868148 925.525333L18.868148 98.49363C18.868148 44.126815 63.222519 0.018963 117.835852 0.018963M925.980444 74.088296 93.790815 74.088296 93.790815 945.170963 925.866667 945.170963 925.904593 945.170963 925.904593 74.088296 925.980444 74.088296 925.980444 74.088296ZM217.353481 338.640593 449.744593 338.640593C454.428444 338.640593 458.258963 334.829037 458.258963 330.145185L458.258963 264.438519 458.258963 263.338667C458.258963 258.673778 454.428444 254.748444 449.85837 254.748444L217.353481 254.748444C212.612741 254.748444 208.839111 258.673778 208.839111 263.338667L208.839111 330.145185C208.839111 334.829037 212.612741 338.640593 217.353481 338.640593L217.353481 338.640593 217.353481 338.640593ZM217.353481 554.799407 673.526519 554.799407C678.229333 554.799407 682.040889 550.987852 682.040889 546.304L682.040889 480.57837C682.154667 480.161185 682.154667 479.819852 682.154667 479.440593 682.154667 474.775704 678.381037 470.964148 673.754074 470.964148L217.353481 470.964148C212.612741 470.964148 208.839111 474.775704 208.839111 479.440593L208.839111 546.360889C208.839111 550.930963 212.612741 554.799407 217.353481 554.799407L217.353481 554.799407 217.353481 554.799407ZM217.353481 770.901333 806.532741 770.901333C811.178667 770.901333 815.047111 767.089778 815.047111 762.405926L815.047111 696.699259C815.104 696.263111 815.104 695.940741 815.104 695.542519 815.104 690.87763 811.33037 687.066074 806.760296 687.066074L217.353481 687.066074C212.612741 687.066074 208.839111 690.87763 208.839111 695.542519L208.839111 762.462815C208.839111 767.089778 212.612741 770.901333 217.353481 770.901333L217.353481 770.901333 217.353481 770.901333Z" fill="#0D0B22" transform="translate(409.796875, 113.859375) scale(0.013671875)"></path></g><g id="8fbd8cf49d39"><rect x="261" y="30" rx="7px" ry="7px" width="130" height="45" style="fill: #F3F3F4; stroke:none;"></rect><g><text text-anchor="start" align="top" anchor="start" font-size="16px" font-weight="normal" fill="rgb(13, 11, 34)" style="font-size:16px;font-family:微软雅黑;color:#0D0B22;font-style:normal;text-align:left;font-weight:normal;font-style: normal;"><tspan x="308" y="57.65625"><tspan>Bean</tspan></tspan></text></g><g><path d="M508.295791 3.713113C227.559513 3.713113 0 231.27262601 0 512s227.568417 508.286887 508.295791 508.286887c280.71847001 0 508.286887-227.568417 508.28688699-508.286887S789.014261 3.713113 508.295791 3.713113zM564.57126999 785.114157l-66.52438299 0L498.046887 361.22267799c-16.01892199 15.279861-37.02427801 30.550817-63.01607 45.82177401-25.991791 15.279861-49.338991 26.730852-70.032696 34.370783l0-64.3072c37.202365-17.488139 69.721043-38.680487 97.564939-63.568139 27.834991-24.878748 47.549217-49.027339 59.13377399-72.43686999l42.86553001-2e-8L564.562365 785.114157z" fill="rgb(68, 68, 68)" transform="translate(283, 42.859375) scale(0.01953125)"></path></g><path d="M906.372741 0.018963C960.777481 0.075852 1005.131852 44.126815 1005.131852 98.49363L1005.131852 98.49363 1005.131852 98.49363 1005.131852 925.525333C1005.131852 979.892148 960.777481 1024 906.221037 1024L117.835852 1024C63.16563 1024 18.868148 979.892148 18.868148 925.525333L18.868148 98.49363C18.868148 44.126815 63.222519 0.018963 117.835852 0.018963M925.980444 74.088296 93.790815 74.088296 93.790815 945.170963 925.866667 945.170963 925.904593 945.170963 925.904593 74.088296 925.980444 74.088296 925.980444 74.088296ZM217.353481 338.640593 449.744593 338.640593C454.428444 338.640593 458.258963 334.829037 458.258963 330.145185L458.258963 264.438519 458.258963 263.338667C458.258963 258.673778 454.428444 254.748444 449.85837 254.748444L217.353481 254.748444C212.612741 254.748444 208.839111 258.673778 208.839111 263.338667L208.839111 330.145185C208.839111 334.829037 212.612741 338.640593 217.353481 338.640593L217.353481 338.640593 217.353481 338.640593ZM217.353481 554.799407 673.526519 554.799407C678.229333 554.799407 682.040889 550.987852 682.040889 546.304L682.040889 480.57837C682.154667 480.161185 682.154667 479.819852 682.154667 479.440593 682.154667 474.775704 678.381037 470.964148 673.754074 470.964148L217.353481 470.964148C212.612741 470.964148 208.839111 474.775704 208.839111 479.440593L208.839111 546.360889C208.839111 550.930963 212.612741 554.799407 217.353481 554.799407L217.353481 554.799407 217.353481 554.799407ZM217.353481 770.901333 806.532741 770.901333C811.178667 770.901333 815.047111 767.089778 815.047111 762.405926L815.047111 696.699259C815.104 696.263111 815.104 695.940741 815.104 695.542519 815.104 690.87763 811.33037 687.066074 806.760296 687.066074L217.353481 687.066074C212.612741 687.066074 208.839111 690.87763 208.839111 695.542519L208.839111 762.462815C208.839111 767.089778 212.612741 770.901333 217.353481 770.901333L217.353481 770.901333 217.353481 770.901333Z" fill="#0D0B22" transform="translate(352.5625, 44.859375) scale(0.013671875)"></path></g><g transform="translate(261, 513)" id="sdjakdjak0"><g id="subline_af6658e531c0" transform="translate(0.5,-0.5)"></g><g transform="translate(0.5,0)"></g><g class="svg-summary-con" transform="translate(0.5,0.5)"></g><g class="svg-boundary-con" transform="translate(0.5,0.5)"></g></g><g transform="translate(261, 444)" id="sdjakdjak1"><g id="subline_9864bc009c9d" transform="translate(0.5,-0.5)"></g><g transform="translate(0.5,0)"></g><g class="svg-summary-con" transform="translate(0.5,0.5)"></g><g class="svg-boundary-con" transform="translate(0.5,0.5)"></g></g><g transform="translate(261, 375)" id="sdjakdjak2"><g id="subline_74e132a2d5f5" transform="translate(0.5,-0.5)"></g><g transform="translate(0.5,0)"></g><g class="svg-summary-con" transform="translate(0.5,0.5)"></g><g class="svg-boundary-con" transform="translate(0.5,0.5)"></g></g><g transform="translate(261, 306)" id="sdjakdjak3"><g id="subline_e7aa9e811998" transform="translate(0.5,-0.5)"></g><g transform="translate(0.5,0)"></g><g class="svg-summary-con" transform="translate(0.5,0.5)"></g><g class="svg-boundary-con" transform="translate(0.5,0.5)"></g></g><g transform="translate(261, 237)" id="sdjakdjak4"><g id="subline_71b5a9619d0c" transform="translate(0.5,-0.5)"></g><g transform="translate(0.5,0)"></g><g class="svg-summary-con" transform="translate(0.5,0.5)"></g><g class="svg-boundary-con" transform="translate(0.5,0.5)"></g></g><g transform="translate(261, 168)" id="sdjakdjak5"><g id="subline_04dfae15bf5f" transform="translate(0.5,-0.5)"></g><g transform="translate(0.5,0)"></g><g class="svg-summary-con" transform="translate(0.5,0.5)"></g><g class="svg-boundary-con" transform="translate(0.5,0.5)"></g></g><g transform="translate(261, 99)" id="sdjakdjak6"><g id="subline_3c8aae493df0" transform="translate(0.5,-0.5)"></g><g transform="translate(0.5,0)"></g><g class="svg-summary-con" transform="translate(0.5,0.5)"></g><g class="svg-boundary-con" transform="translate(0.5,0.5)"></g></g><g transform="translate(261, 30)" id="sdjakdjak7"><g id="subline_8fbd8cf49d39" transform="translate(0.5,-0.5)"></g><g transform="translate(0.5,0)"></g><g class="svg-summary-con" transform="translate(0.5,0.5)"></g><g class="svg-boundary-con" transform="translate(0.5,0.5)"></g></g><g transform="translate(30, 265)" id="sdjakdjak8"><g id="subline_root" transform="translate(0.5,-0.5)"></g><g transform="translate(0.5,0)"></g><g class="svg-summary-con" transform="translate(0.5,0.5)"></g><g class="svg-boundary-con" transform="translate(0.5,0.5)"></g></g><g id="root"><rect x="30" y="265" rx="7px" ry="7px" width="136" height="57" style="fill: rgb(13, 11, 34); stroke:none;"></rect><g><text text-anchor="start" align="top" anchor="start" font-size="18px" font-weight="normal" fill="rgb(255, 255, 255)" style="font-size:18px;font-family:微软雅黑;color:#fff;font-style:normal;text-align:left;font-weight:normal;font-style: normal;"><tspan x="70" y="299.75"><tspan>Spring</tspan></tspan></text></g></g></svg>
